<?xml version="1.0" encoding="utf-8"?>
<!-- Generator: Adobe Illustrator 19.2.1, SVG Export Plug-In . SVG Version: 6.00 Build 0)  -->
<svg version="1.1" id="Layer_1" xmlns="http://www.w3.org/2000/svg" xmlns:xlink="http://www.w3.org/1999/xlink" x="0px" y="0px"
	 viewBox="0 0 183 49" enable-background="new 0 0 183 49" xml:space="preserve">
<rect x="45.26" y="0.49" fill="#FFFFFF" width="8" height="47.58"/>
<path fill="#FFFFFF" d="M57.58,38.81c0-2.81,0.44-5.5,1.81-6.75c2.75-2.62,9.32-3.19,32.95-3.19c0,0,0-0.5,0-0.81
	c0-4-1.81-5.13-10.38-5.13c-6.88,0-15.88,0.75-19.26,1.44l-0.94-5.75c3.75-0.75,9.94-1.5,20.38-1.5c14.07,0,18.26,2.38,18.26,9.69
	v21.26h-6.82l-1.06-3.75C88.09,46.19,79.64,49,70.02,49C62.27,49,57.58,46.62,57.58,38.81 M92.34,39.12c0-0.25,0-5.44,0-5.44
	c-20.76,0.12-24.51,0.75-25.82,2.13c-0.56,0.62-0.62,1.88-0.62,3.19c0,3,1.81,3.94,7.06,3.94C79.64,42.94,87.34,41.06,92.34,39.12z"
	/>
<path fill="#FFFFFF" d="M123.19,41.69c-9.38,0-9.88-0.44-9.88-3.81c0-4.88,0-12.75,0-12.75h16.94l-1.08-6.63h-15.86V9.18h-8
	c0,0,0,28.82,0,30.63c0,6.63,3.19,8.63,15.76,8.63c3.45,0,10.35-0.12,14.2-0.54l-1.07-6.58C130.86,41.63,125.23,41.69,123.19,41.69"
	/>
<path fill="#FFFFFF" d="M20.51,29.68C10.25,29.5,8.13,29.37,8.13,26.37c0-3.06,1.88-3.25,11.57-3.25c5.81,0,13.57,0.69,18.01,1.5
	l0.02-0.11l-0.99-6.06c-4.2-0.68-10.32-1.21-16.98-1.21C4.63,17.24,0,19.18,0,26.43c0,7.5,3.38,9.44,19.13,9.75
	c12.32,0.19,14,0.44,14,3.44c0,3.06-1.75,3.31-13.38,3.31c-6.05,0-13.04-0.61-17.25-1.21l-0.02,0.12l0.99,6.1
	c4.03,0.43,9.8,0.8,16.28,0.8c16.88,0,21.63-2,21.63-9.5C41.39,31.68,37.64,30,20.51,29.68"/>
<path fill="#FFFFFF" d="M182.67,31.68c0-10.82-5.88-14.69-21.82-14.69c-17.38,0-23.01,5-23.01,16.13c0,11.19,5.75,15.88,23.82,15.88
	c7.54,0,13.65-0.86,17.56-1.78l-1.01-6.24c-5.48,1.22-11.24,1.77-16.42,1.77c-10.5,0-14.75-1.19-15.57-7.25h36.45
	C182.67,35.12,182.67,32.18,182.67,31.68 M146.22,30.06c0.88-5.69,4.82-6.88,14.5-6.88c10.82,0,13.5,1.44,13.88,6.88H146.22z"/>
</svg>
